<svg width="1367" height="339" viewBox="0 0 1367 339" fill="none" xmlns="http://www.w3.org/2000/svg">
<path d="M90.2079 0V282" stroke="#C1BBEB"/>
<path d="M205.208 0V282" stroke="#C1BBEB"/>
<path d="M320.208 0V282" stroke="#C1BBEB"/>
<path d="M435.208 0V282" stroke="#C1BBEB"/>
<path d="M550.208 0V282" stroke="#C1BBEB"/>
<path d="M665.208 0V282" stroke="#C1BBEB"/>
<path d="M780.208 0V282" stroke="#C1BBEB"/>
<path d="M895.208 0V282" stroke="#C1BBEB"/>
<path d="M1010.21 0V282" stroke="#C1BBEB"/>
<path d="M1125.21 0V282" stroke="#C1BBEB"/>
<path d="M1240.21 0V282" stroke="#C1BBEB"/>
<path d="M1355.21 0V282" stroke="#C1BBEB"/>
<path d="M780 118L780 282" stroke="#303972" stroke-dasharray="5 5"/>
<path d="M80.1577 317.285V326.555C80.1577 327.587 79.8397 328.415 79.2037 329.039C78.5677 329.651 77.7277 329.957 76.6837 329.957C75.6277 329.957 74.7817 329.645 74.1457 329.021C73.5097 328.385 73.1917 327.521 73.1917 326.429H74.8297C74.8417 327.041 74.9977 327.539 75.2977 327.923C75.6097 328.307 76.0717 328.499 76.6837 328.499C77.2957 328.499 77.7517 328.319 78.0517 327.959C78.3517 327.587 78.5017 327.119 78.5017 326.555V317.285H80.1577ZM82.7727 324.863C82.7727 323.855 82.9767 322.973 83.3847 322.217C83.7927 321.449 84.3507 320.855 85.0587 320.435C85.7787 320.015 86.5767 319.805 87.4527 319.805C88.3167 319.805 89.0667 319.991 89.7027 320.363C90.3387 320.735 90.8127 321.203 91.1247 321.767V319.967H92.7807V329.831H91.1247V327.995C90.8007 328.571 90.3147 329.051 89.6667 329.435C89.0307 329.807 88.2867 329.993 87.4347 329.993C86.5587 329.993 85.7667 329.777 85.0587 329.345C84.3507 328.913 83.7927 328.307 83.3847 327.527C82.9767 326.747 82.7727 325.859 82.7727 324.863ZM91.1247 324.881C91.1247 324.137 90.9747 323.489 90.6747 322.937C90.3747 322.385 89.9667 321.965 89.4507 321.677C88.9467 321.377 88.3887 321.227 87.7767 321.227C87.1647 321.227 86.6067 321.371 86.1027 321.659C85.5987 321.947 85.1967 322.367 84.8967 322.919C84.5967 323.471 84.4467 324.119 84.4467 324.863C84.4467 325.619 84.5967 326.279 84.8967 326.843C85.1967 327.395 85.5987 327.821 86.1027 328.121C86.6067 328.409 87.1647 328.553 87.7767 328.553C88.3887 328.553 88.9467 328.409 89.4507 328.121C89.9667 327.821 90.3747 327.395 90.6747 326.843C90.9747 326.279 91.1247 325.625 91.1247 324.881ZM100.355 319.787C101.555 319.787 102.527 320.153 103.271 320.885C104.015 321.605 104.387 322.649 104.387 324.017V329.831H102.767V324.251C102.767 323.267 102.521 322.517 102.029 322.001C101.537 321.473 100.865 321.209 100.013 321.209C99.1487 321.209 98.4587 321.479 97.9427 322.019C97.4387 322.559 97.1867 323.345 97.1867 324.377V329.831H95.5487V319.967H97.1867V321.371C97.5107 320.867 97.9487 320.477 98.5007 320.201C99.0647 319.925 99.6827 319.787 100.355 319.787Z" fill="#A098AE"/>
<path d="M195.932 317.285V318.617H190.478V322.847H194.906V324.179H190.478V329.831H188.84V317.285H195.932ZM206.91 324.521C206.91 324.833 206.892 325.163 206.856 325.511H198.972C199.032 326.483 199.362 327.245 199.962 327.797C200.574 328.337 201.312 328.607 202.176 328.607C202.884 328.607 203.472 328.445 203.94 328.121C204.42 327.785 204.756 327.341 204.948 326.789H206.712C206.448 327.737 205.92 328.511 205.128 329.111C204.336 329.699 203.352 329.993 202.176 329.993C201.24 329.993 200.4 329.783 199.656 329.363C198.924 328.943 198.348 328.349 197.928 327.581C197.508 326.801 197.298 325.901 197.298 324.881C197.298 323.861 197.502 322.967 197.91 322.199C198.318 321.431 198.888 320.843 199.62 320.435C200.364 320.015 201.216 319.805 202.176 319.805C203.112 319.805 203.94 320.009 204.66 320.417C205.38 320.825 205.932 321.389 206.316 322.109C206.712 322.817 206.91 323.621 206.91 324.521ZM205.218 324.179C205.218 323.555 205.08 323.021 204.804 322.577C204.528 322.121 204.15 321.779 203.67 321.551C203.202 321.311 202.68 321.191 202.104 321.191C201.276 321.191 200.568 321.455 199.98 321.983C199.404 322.511 199.074 323.243 198.99 324.179H205.218ZM210.71 321.803C211.046 321.215 211.538 320.735 212.186 320.363C212.834 319.991 213.572 319.805 214.4 319.805C215.288 319.805 216.086 320.015 216.794 320.435C217.502 320.855 218.06 321.449 218.468 322.217C218.876 322.973 219.08 323.855 219.08 324.863C219.08 325.859 218.876 326.747 218.468 327.527C218.06 328.307 217.496 328.913 216.776 329.345C216.068 329.777 215.276 329.993 214.4 329.993C213.548 329.993 212.798 329.807 212.15 329.435C211.514 329.063 211.034 328.589 210.71 328.013V329.831H209.072V316.511H210.71V321.803ZM217.406 324.863C217.406 324.119 217.256 323.471 216.956 322.919C216.656 322.367 216.248 321.947 215.732 321.659C215.228 321.371 214.67 321.227 214.058 321.227C213.458 321.227 212.9 321.377 212.384 321.677C211.88 321.965 211.472 322.391 211.16 322.955C210.86 323.507 210.71 324.149 210.71 324.881C210.71 325.625 210.86 326.279 211.16 326.843C211.472 327.395 211.88 327.821 212.384 328.121C212.9 328.409 213.458 328.553 214.058 328.553C214.67 328.553 215.228 328.409 215.732 328.121C216.248 327.821 216.656 327.395 216.956 326.843C217.256 326.279 217.406 325.619 217.406 324.863Z" fill="#A098AE"/>
<path d="M315.566 317.375V329.831H313.928V320.543L309.788 329.831H308.636L304.478 320.525V329.831H302.84V317.375H304.604L309.212 327.671L313.82 317.375H315.566ZM317.732 324.863C317.732 323.855 317.936 322.973 318.344 322.217C318.752 321.449 319.31 320.855 320.018 320.435C320.738 320.015 321.536 319.805 322.412 319.805C323.276 319.805 324.026 319.991 324.662 320.363C325.298 320.735 325.772 321.203 326.084 321.767V319.967H327.74V329.831H326.084V327.995C325.76 328.571 325.274 329.051 324.626 329.435C323.99 329.807 323.246 329.993 322.394 329.993C321.518 329.993 320.726 329.777 320.018 329.345C319.31 328.913 318.752 328.307 318.344 327.527C317.936 326.747 317.732 325.859 317.732 324.863ZM326.084 324.881C326.084 324.137 325.934 323.489 325.634 322.937C325.334 322.385 324.926 321.965 324.41 321.677C323.906 321.377 323.348 321.227 322.736 321.227C322.124 321.227 321.566 321.371 321.062 321.659C320.558 321.947 320.156 322.367 319.856 322.919C319.556 323.471 319.406 324.119 319.406 324.863C319.406 325.619 319.556 326.279 319.856 326.843C320.156 327.395 320.558 327.821 321.062 328.121C321.566 328.409 322.124 328.553 322.736 328.553C323.348 328.553 323.906 328.409 324.41 328.121C324.926 327.821 325.334 327.395 325.634 326.843C325.934 326.279 326.084 325.625 326.084 324.881ZM332.146 321.569C332.434 321.005 332.842 320.567 333.37 320.255C333.91 319.943 334.564 319.787 335.332 319.787V321.479H334.9C333.064 321.479 332.146 322.475 332.146 324.467V329.831H330.508V319.967H332.146V321.569Z" fill="#A098AE"/>
<path d="M426.256 327.041H420.784L419.776 329.831H418.048L422.584 317.357H424.474L428.992 329.831H427.264L426.256 327.041ZM425.788 325.709L423.52 319.373L421.252 325.709H425.788ZM432.607 321.785C432.931 321.221 433.411 320.753 434.047 320.381C434.695 319.997 435.445 319.805 436.297 319.805C437.173 319.805 437.965 320.015 438.673 320.435C439.393 320.855 439.957 321.449 440.365 322.217C440.773 322.973 440.977 323.855 440.977 324.863C440.977 325.859 440.773 326.747 440.365 327.527C439.957 328.307 439.393 328.913 438.673 329.345C437.965 329.777 437.173 329.993 436.297 329.993C435.457 329.993 434.713 329.807 434.065 329.435C433.429 329.051 432.943 328.577 432.607 328.013V334.511H430.969V319.967H432.607V321.785ZM439.303 324.863C439.303 324.119 439.153 323.471 438.853 322.919C438.553 322.367 438.145 321.947 437.629 321.659C437.125 321.371 436.567 321.227 435.955 321.227C435.355 321.227 434.797 321.377 434.281 321.677C433.777 321.965 433.369 322.391 433.057 322.955C432.757 323.507 432.607 324.149 432.607 324.881C432.607 325.625 432.757 326.279 433.057 326.843C433.369 327.395 433.777 327.821 434.281 328.121C434.797 328.409 435.355 328.553 435.955 328.553C436.567 328.553 437.125 328.409 437.629 328.121C438.145 327.821 438.553 327.395 438.853 326.843C439.153 326.279 439.303 325.619 439.303 324.863ZM444.771 321.569C445.059 321.005 445.467 320.567 445.995 320.255C446.535 319.943 447.189 319.787 447.957 319.787V321.479H447.525C445.689 321.479 444.771 322.475 444.771 324.467V329.831H443.133V319.967H444.771V321.569Z" fill="#A098AE"/>
<path d="M544.566 317.375V329.831H542.928V320.543L538.788 329.831H537.636L533.478 320.525V329.831H531.84V317.375H533.604L538.212 327.671L542.82 317.375H544.566ZM546.732 324.863C546.732 323.855 546.936 322.973 547.344 322.217C547.752 321.449 548.31 320.855 549.018 320.435C549.738 320.015 550.536 319.805 551.412 319.805C552.276 319.805 553.026 319.991 553.662 320.363C554.298 320.735 554.772 321.203 555.084 321.767V319.967H556.74V329.831H555.084V327.995C554.76 328.571 554.274 329.051 553.626 329.435C552.99 329.807 552.246 329.993 551.394 329.993C550.518 329.993 549.726 329.777 549.018 329.345C548.31 328.913 547.752 328.307 547.344 327.527C546.936 326.747 546.732 325.859 546.732 324.863ZM555.084 324.881C555.084 324.137 554.934 323.489 554.634 322.937C554.334 322.385 553.926 321.965 553.41 321.677C552.906 321.377 552.348 321.227 551.736 321.227C551.124 321.227 550.566 321.371 550.062 321.659C549.558 321.947 549.156 322.367 548.856 322.919C548.556 323.471 548.406 324.119 548.406 324.863C548.406 325.619 548.556 326.279 548.856 326.843C549.156 327.395 549.558 327.821 550.062 328.121C550.566 328.409 551.124 328.553 551.736 328.553C552.348 328.553 552.906 328.409 553.41 328.121C553.926 327.821 554.334 327.395 554.634 326.843C554.934 326.279 555.084 325.625 555.084 324.881ZM568.004 319.967L562.064 334.475H560.372L562.316 329.723L558.338 319.967H560.156L563.252 327.959L566.312 319.967H568.004Z" fill="#A098AE"/>
<path d="M657.158 317.285V326.555C657.158 327.587 656.84 328.415 656.204 329.039C655.568 329.651 654.728 329.957 653.684 329.957C652.628 329.957 651.782 329.645 651.146 329.021C650.51 328.385 650.192 327.521 650.192 326.429H651.83C651.842 327.041 651.998 327.539 652.298 327.923C652.61 328.307 653.072 328.499 653.684 328.499C654.296 328.499 654.752 328.319 655.052 327.959C655.352 327.587 655.502 327.119 655.502 326.555V317.285H657.158ZM669.133 319.967V329.831H667.495V328.373C667.183 328.877 666.745 329.273 666.181 329.561C665.629 329.837 665.017 329.975 664.345 329.975C663.577 329.975 662.887 329.819 662.275 329.507C661.663 329.183 661.177 328.703 660.817 328.067C660.469 327.431 660.295 326.657 660.295 325.745V319.967H661.915V325.529C661.915 326.501 662.161 327.251 662.653 327.779C663.145 328.295 663.817 328.553 664.669 328.553C665.545 328.553 666.235 328.283 666.739 327.743C667.243 327.203 667.495 326.417 667.495 325.385V319.967H669.133ZM676.704 319.787C677.904 319.787 678.876 320.153 679.62 320.885C680.364 321.605 680.736 322.649 680.736 324.017V329.831H679.116V324.251C679.116 323.267 678.87 322.517 678.378 322.001C677.886 321.473 677.214 321.209 676.362 321.209C675.498 321.209 674.808 321.479 674.292 322.019C673.788 322.559 673.536 323.345 673.536 324.377V329.831H671.898V319.967H673.536V321.371C673.86 320.867 674.298 320.477 674.85 320.201C675.414 319.925 676.032 319.787 676.704 319.787Z" fill="#A098AE"/>
<path d="M771.158 317.285V326.555C771.158 327.587 770.84 328.415 770.204 329.039C769.568 329.651 768.728 329.957 767.684 329.957C766.628 329.957 765.782 329.645 765.146 329.021C764.51 328.385 764.192 327.521 764.192 326.429H765.83C765.842 327.041 765.998 327.539 766.298 327.923C766.61 328.307 767.072 328.499 767.684 328.499C768.296 328.499 768.752 328.319 769.052 327.959C769.352 327.587 769.502 327.119 769.502 326.555V317.285H771.158ZM783.133 319.967V329.831H781.495V328.373C781.183 328.877 780.745 329.273 780.181 329.561C779.629 329.837 779.017 329.975 778.345 329.975C777.577 329.975 776.887 329.819 776.275 329.507C775.663 329.183 775.177 328.703 774.817 328.067C774.469 327.431 774.295 326.657 774.295 325.745V319.967H775.915V325.529C775.915 326.501 776.161 327.251 776.653 327.779C777.145 328.295 777.817 328.553 778.669 328.553C779.545 328.553 780.235 328.283 780.739 327.743C781.243 327.203 781.495 326.417 781.495 325.385V319.967H783.133ZM787.536 316.511V329.831H785.898V316.511H787.536Z" fill="#303972"/>
<path d="M879.256 327.041H873.784L872.776 329.831H871.048L875.584 317.357H877.474L881.992 329.831H880.264L879.256 327.041ZM878.788 325.709L876.52 319.373L874.252 325.709H878.788ZM892.717 319.967V329.831H891.079V328.373C890.767 328.877 890.329 329.273 889.765 329.561C889.213 329.837 888.601 329.975 887.929 329.975C887.161 329.975 886.471 329.819 885.859 329.507C885.247 329.183 884.761 328.703 884.401 328.067C884.053 327.431 883.879 326.657 883.879 325.745V319.967H885.499V325.529C885.499 326.501 885.745 327.251 886.237 327.779C886.729 328.295 887.401 328.553 888.253 328.553C889.129 328.553 889.819 328.283 890.323 327.743C890.827 327.203 891.079 326.417 891.079 325.385V319.967H892.717ZM899.55 319.805C900.402 319.805 901.146 319.991 901.782 320.363C902.43 320.735 902.91 321.203 903.222 321.767V319.967H904.878V330.047C904.878 330.947 904.686 331.745 904.302 332.441C903.918 333.149 903.366 333.701 902.646 334.097C901.938 334.493 901.11 334.691 900.162 334.691C898.866 334.691 897.786 334.385 896.922 333.773C896.058 333.161 895.548 332.327 895.392 331.271H897.012C897.192 331.871 897.564 332.351 898.128 332.711C898.692 333.083 899.37 333.269 900.162 333.269C901.062 333.269 901.794 332.987 902.358 332.423C902.934 331.859 903.222 331.067 903.222 330.047V327.977C902.898 328.553 902.418 329.033 901.782 329.417C901.146 329.801 900.402 329.993 899.55 329.993C898.674 329.993 897.876 329.777 897.156 329.345C896.448 328.913 895.89 328.307 895.482 327.527C895.074 326.747 894.87 325.859 894.87 324.863C894.87 323.855 895.074 322.973 895.482 322.217C895.89 321.449 896.448 320.855 897.156 320.435C897.876 320.015 898.674 319.805 899.55 319.805ZM903.222 324.881C903.222 324.137 903.072 323.489 902.772 322.937C902.472 322.385 902.064 321.965 901.548 321.677C901.044 321.377 900.486 321.227 899.874 321.227C899.262 321.227 898.704 321.371 898.2 321.659C897.696 321.947 897.294 322.367 896.994 322.919C896.694 323.471 896.544 324.119 896.544 324.863C896.544 325.619 896.694 326.279 896.994 326.843C897.294 327.395 897.696 327.821 898.2 328.121C898.704 328.409 899.262 328.553 899.874 328.553C900.486 328.553 901.044 328.409 901.548 328.121C902.064 327.821 902.472 327.395 902.772 326.843C903.072 326.279 903.222 325.625 903.222 324.881Z" fill="#A098AE"/>
<path d="M992.818 329.957C991.99 329.957 991.246 329.813 990.586 329.525C989.938 329.225 989.428 328.817 989.056 328.301C988.684 327.773 988.492 327.167 988.48 326.483H990.226C990.286 327.071 990.526 327.569 990.946 327.977C991.378 328.373 992.002 328.571 992.818 328.571C993.598 328.571 994.21 328.379 994.654 327.995C995.11 327.599 995.338 327.095 995.338 326.483C995.338 326.003 995.206 325.613 994.942 325.313C994.678 325.013 994.348 324.785 993.952 324.629C993.556 324.473 993.022 324.305 992.35 324.125C991.522 323.909 990.856 323.693 990.352 323.477C989.86 323.261 989.434 322.925 989.074 322.469C988.726 322.001 988.552 321.377 988.552 320.597C988.552 319.913 988.726 319.307 989.074 318.779C989.422 318.251 989.908 317.843 990.532 317.555C991.168 317.267 991.894 317.123 992.71 317.123C993.886 317.123 994.846 317.417 995.59 318.005C996.346 318.593 996.772 319.373 996.868 320.345H995.068C995.008 319.865 994.756 319.445 994.312 319.085C993.868 318.713 993.28 318.527 992.548 318.527C991.864 318.527 991.306 318.707 990.874 319.067C990.442 319.415 990.226 319.907 990.226 320.543C990.226 320.999 990.352 321.371 990.604 321.659C990.868 321.947 991.186 322.169 991.558 322.325C991.942 322.469 992.476 322.637 993.16 322.829C993.988 323.057 994.654 323.285 995.158 323.513C995.662 323.729 996.094 324.071 996.454 324.539C996.814 324.995 996.994 325.619 996.994 326.411C996.994 327.023 996.832 327.599 996.508 328.139C996.184 328.679 995.704 329.117 995.068 329.453C994.432 329.789 993.682 329.957 992.818 329.957ZM1008.4 324.521C1008.4 324.833 1008.39 325.163 1008.35 325.511H1000.47C1000.53 326.483 1000.86 327.245 1001.46 327.797C1002.07 328.337 1002.81 328.607 1003.67 328.607C1004.38 328.607 1004.97 328.445 1005.43 328.121C1005.91 327.785 1006.25 327.341 1006.44 326.789H1008.21C1007.94 327.737 1007.41 328.511 1006.62 329.111C1005.83 329.699 1004.85 329.993 1003.67 329.993C1002.73 329.993 1001.89 329.783 1001.15 329.363C1000.42 328.943 999.842 328.349 999.422 327.581C999.002 326.801 998.792 325.901 998.792 324.881C998.792 323.861 998.996 322.967 999.404 322.199C999.812 321.431 1000.38 320.843 1001.11 320.435C1001.86 320.015 1002.71 319.805 1003.67 319.805C1004.61 319.805 1005.43 320.009 1006.15 320.417C1006.87 320.825 1007.43 321.389 1007.81 322.109C1008.21 322.817 1008.4 323.621 1008.4 324.521ZM1006.71 324.179C1006.71 323.555 1006.57 323.021 1006.3 322.577C1006.02 322.121 1005.64 321.779 1005.16 321.551C1004.7 321.311 1004.17 321.191 1003.6 321.191C1002.77 321.191 1002.06 321.455 1001.47 321.983C1000.9 322.511 1000.57 323.243 1000.48 324.179H1006.71ZM1012.2 321.785C1012.53 321.221 1013.01 320.753 1013.64 320.381C1014.29 319.997 1015.04 319.805 1015.89 319.805C1016.77 319.805 1017.56 320.015 1018.27 320.435C1018.99 320.855 1019.55 321.449 1019.96 322.217C1020.37 322.973 1020.57 323.855 1020.57 324.863C1020.57 325.859 1020.37 326.747 1019.96 327.527C1019.55 328.307 1018.99 328.913 1018.27 329.345C1017.56 329.777 1016.77 329.993 1015.89 329.993C1015.05 329.993 1014.31 329.807 1013.66 329.435C1013.03 329.051 1012.54 328.577 1012.2 328.013V334.511H1010.57V319.967H1012.2V321.785ZM1018.9 324.863C1018.9 324.119 1018.75 323.471 1018.45 322.919C1018.15 322.367 1017.74 321.947 1017.23 321.659C1016.72 321.371 1016.16 321.227 1015.55 321.227C1014.95 321.227 1014.39 321.377 1013.88 321.677C1013.37 321.965 1012.97 322.391 1012.65 322.955C1012.35 323.507 1012.2 324.149 1012.2 324.881C1012.2 325.625 1012.35 326.279 1012.65 326.843C1012.97 327.395 1013.37 327.821 1013.88 328.121C1014.39 328.409 1014.95 328.553 1015.55 328.553C1016.16 328.553 1016.72 328.409 1017.23 328.121C1017.74 327.821 1018.15 327.395 1018.45 326.843C1018.75 326.279 1018.9 325.619 1018.9 324.863Z" fill="#A098AE"/>
<path d="M1109.53 329.957C1108.36 329.957 1107.3 329.687 1106.34 329.147C1105.38 328.595 1104.62 327.833 1104.06 326.861C1103.5 325.877 1103.23 324.773 1103.23 323.549C1103.23 322.325 1103.5 321.227 1104.06 320.255C1104.62 319.271 1105.38 318.509 1106.34 317.969C1107.3 317.417 1108.36 317.141 1109.53 317.141C1110.7 317.141 1111.77 317.417 1112.73 317.969C1113.69 318.509 1114.45 319.265 1115 320.237C1115.55 321.209 1115.83 322.313 1115.83 323.549C1115.83 324.785 1115.55 325.889 1115 326.861C1114.45 327.833 1113.69 328.595 1112.73 329.147C1111.77 329.687 1110.7 329.957 1109.53 329.957ZM1109.53 328.535C1110.4 328.535 1111.19 328.331 1111.89 327.923C1112.59 327.515 1113.15 326.933 1113.54 326.177C1113.95 325.421 1114.15 324.545 1114.15 323.549C1114.15 322.541 1113.95 321.665 1113.54 320.921C1113.15 320.165 1112.6 319.583 1111.9 319.175C1111.21 318.767 1110.42 318.563 1109.53 318.563C1108.64 318.563 1107.85 318.767 1107.15 319.175C1106.46 319.583 1105.9 320.165 1105.5 320.921C1105.1 321.665 1104.9 322.541 1104.9 323.549C1104.9 324.545 1105.1 325.421 1105.5 326.177C1105.9 326.933 1106.46 327.515 1107.15 327.923C1107.86 328.331 1108.65 328.535 1109.53 328.535ZM1117.38 324.881C1117.38 323.861 1117.58 322.973 1117.99 322.217C1118.4 321.449 1118.96 320.855 1119.68 320.435C1120.41 320.015 1121.25 319.805 1122.18 319.805C1123.4 319.805 1124.39 320.099 1125.17 320.687C1125.96 321.275 1126.49 322.091 1126.74 323.135H1124.97C1124.81 322.535 1124.48 322.061 1123.98 321.713C1123.5 321.365 1122.9 321.191 1122.18 321.191C1121.25 321.191 1120.49 321.515 1119.92 322.163C1119.34 322.799 1119.05 323.705 1119.05 324.881C1119.05 326.069 1119.34 326.987 1119.92 327.635C1120.49 328.283 1121.25 328.607 1122.18 328.607C1122.9 328.607 1123.5 328.439 1123.98 328.103C1124.46 327.767 1124.79 327.287 1124.97 326.663H1126.74C1126.47 327.671 1125.95 328.481 1125.15 329.093C1124.36 329.693 1123.37 329.993 1122.18 329.993C1121.25 329.993 1120.41 329.783 1119.68 329.363C1118.96 328.943 1118.4 328.349 1117.99 327.581C1117.58 326.813 1117.38 325.913 1117.38 324.881ZM1130.92 321.317V327.131C1130.92 327.611 1131.02 327.953 1131.23 328.157C1131.43 328.349 1131.79 328.445 1132.29 328.445H1133.5V329.831H1132.02C1131.11 329.831 1130.42 329.621 1129.97 329.201C1129.51 328.781 1129.28 328.091 1129.28 327.131V321.317H1128.01V319.967H1129.28V317.483H1130.92V319.967H1133.5V321.317H1130.92Z" fill="#A098AE"/>
<path d="M1226.7 329.831H1225.07L1218.48 319.841V329.831H1216.84V317.267H1218.48L1225.07 327.239V317.267H1226.7V329.831ZM1233.8 329.993C1232.87 329.993 1232.03 329.783 1231.28 329.363C1230.53 328.943 1229.95 328.349 1229.51 327.581C1229.09 326.801 1228.88 325.901 1228.88 324.881C1228.88 323.873 1229.1 322.985 1229.53 322.217C1229.98 321.437 1230.58 320.843 1231.33 320.435C1232.09 320.015 1232.93 319.805 1233.87 319.805C1234.81 319.805 1235.65 320.015 1236.41 320.435C1237.16 320.843 1237.76 321.431 1238.19 322.199C1238.63 322.967 1238.86 323.861 1238.86 324.881C1238.86 325.901 1238.63 326.801 1238.17 327.581C1237.73 328.349 1237.12 328.943 1236.35 329.363C1235.59 329.783 1234.73 329.993 1233.8 329.993ZM1233.8 328.553C1234.39 328.553 1234.94 328.415 1235.45 328.139C1235.97 327.863 1236.38 327.449 1236.7 326.897C1237.02 326.345 1237.18 325.673 1237.18 324.881C1237.18 324.089 1237.03 323.417 1236.71 322.865C1236.4 322.313 1235.99 321.905 1235.49 321.641C1234.99 321.365 1234.44 321.227 1233.85 321.227C1233.25 321.227 1232.7 321.365 1232.2 321.641C1231.7 321.905 1231.31 322.313 1231.01 322.865C1230.71 323.417 1230.56 324.089 1230.56 324.881C1230.56 325.685 1230.7 326.363 1230.99 326.915C1231.29 327.467 1231.69 327.881 1232.18 328.157C1232.67 328.421 1233.21 328.553 1233.8 328.553ZM1244.68 328.319L1247.74 319.967H1249.49L1245.62 329.831H1243.71L1239.84 319.967H1241.6L1244.68 328.319Z" fill="#A098AE"/>
<path d="M1336.75 317.285C1338.11 317.285 1339.3 317.543 1340.29 318.059C1341.3 318.563 1342.07 319.289 1342.6 320.237C1343.14 321.185 1343.41 322.301 1343.41 323.585C1343.41 324.869 1343.14 325.985 1342.6 326.933C1342.07 327.869 1341.3 328.589 1340.29 329.093C1339.3 329.585 1338.11 329.831 1336.75 329.831H1332.84V317.285H1336.75ZM1336.75 328.481C1338.37 328.481 1339.6 328.055 1340.45 327.203C1341.31 326.339 1341.73 325.133 1341.73 323.585C1341.73 322.025 1341.3 320.807 1340.44 319.931C1339.58 319.055 1338.35 318.617 1336.75 318.617H1334.48V328.481H1336.75ZM1354.57 324.521C1354.57 324.833 1354.55 325.163 1354.51 325.511H1346.63C1346.69 326.483 1347.02 327.245 1347.62 327.797C1348.23 328.337 1348.97 328.607 1349.83 328.607C1350.54 328.607 1351.13 328.445 1351.6 328.121C1352.08 327.785 1352.41 327.341 1352.6 326.789H1354.37C1354.1 327.737 1353.58 328.511 1352.78 329.111C1351.99 329.699 1351.01 329.993 1349.83 329.993C1348.9 329.993 1348.06 329.783 1347.31 329.363C1346.58 328.943 1346 328.349 1345.58 327.581C1345.16 326.801 1344.95 325.901 1344.95 324.881C1344.95 323.861 1345.16 322.967 1345.57 322.199C1345.97 321.431 1346.54 320.843 1347.28 320.435C1348.02 320.015 1348.87 319.805 1349.83 319.805C1350.77 319.805 1351.6 320.009 1352.32 320.417C1353.04 320.825 1353.59 321.389 1353.97 322.109C1354.37 322.817 1354.57 323.621 1354.57 324.521ZM1352.87 324.179C1352.87 323.555 1352.74 323.021 1352.46 322.577C1352.18 322.121 1351.81 321.779 1351.33 321.551C1350.86 321.311 1350.34 321.191 1349.76 321.191C1348.93 321.191 1348.22 321.455 1347.64 321.983C1347.06 322.511 1346.73 323.243 1346.65 324.179H1352.87ZM1356.12 324.881C1356.12 323.861 1356.32 322.973 1356.73 322.217C1357.14 321.449 1357.7 320.855 1358.42 320.435C1359.15 320.015 1359.99 319.805 1360.92 319.805C1362.13 319.805 1363.13 320.099 1363.91 320.687C1364.7 321.275 1365.22 322.091 1365.48 323.135H1363.71C1363.54 322.535 1363.21 322.061 1362.72 321.713C1362.24 321.365 1361.64 321.191 1360.92 321.191C1359.99 321.191 1359.23 321.515 1358.65 322.163C1358.08 322.799 1357.79 323.705 1357.79 324.881C1357.79 326.069 1358.08 326.987 1358.65 327.635C1359.23 328.283 1359.99 328.607 1360.92 328.607C1361.64 328.607 1362.24 328.439 1362.72 328.103C1363.2 327.767 1363.53 327.287 1363.71 326.663H1365.48C1365.21 327.671 1364.68 328.481 1363.89 329.093C1363.1 329.693 1362.11 329.993 1360.92 329.993C1359.99 329.993 1359.15 329.783 1358.42 329.363C1357.7 328.943 1357.14 328.349 1356.73 327.581C1356.32 326.813 1356.12 325.913 1356.12 324.881Z" fill="#A098AE"/>
<path d="M91.5787 265.391C169.932 265.391 232.791 61.164 320.286 61.164C407.781 61.164 456.326 279.664 554.471 279.664C652.617 279.664 695.397 146.164 777.7 146.164C860.003 146.164 916.972 205.164 1004.35 205.164C1091.73 205.164 1153.8 84.164 1237.17 84.164C1320.54 84.164 1274.15 126.681 1357 126.681" stroke="#FCC43E" stroke-width="6" stroke-linecap="round"/>
<path d="M90.2084 265.391C168.561 265.391 231.421 61.164 318.916 61.164C406.411 61.164 454.955 279.664 553.101 279.664C651.246 279.664 694.027 146.164 776.33 146.164C858.633 146.164 915.602 205.164 1002.98 205.164C1090.36 205.164 1152.43 84.164 1235.8 84.164C1319.16 84.164 1272.78 126.681 1355.63 126.681V279.664H553.101H90.2084V265.391Z" fill="url(#paint0_linear_1_110)"/>
<path d="M91.5786 222.332C169.977 222.332 226.683 145 321.349 145C405.893 145 466.383 254.81 553.107 254.81C651.566 254.81 695.379 119.956 777.529 119.956C859.679 119.956 922.29 254.81 1006.18 254.81C1112.68 254.81 1147.17 42.836 1237.57 42.8359C1319.39 42.8359 1277.96 167.5 1356 167.5" stroke="#FB7D5B" stroke-width="6" stroke-linecap="round"/>
<path d="M319.978 145C225.312 145 168.606 222.332 90.2084 222.332V282H1354.63V167.5C1276.59 167.5 1318.02 42.8359 1236.2 42.8359C1145.8 42.836 1111.31 254.81 1004.81 254.81C920.92 254.81 858.309 119.956 776.159 119.956C694.009 119.956 650.196 254.81 551.737 254.81C465.012 254.81 404.522 145 319.978 145Z" fill="url(#paint1_linear_1_110)"/>
<path d="M781.728 127C786.696 127 790.74 122.98 790.74 118C790.74 113.02 786.696 109 781.728 109C776.76 109 772.715 113.02 772.715 118C772.715 122.98 776.76 127 781.728 127Z" fill="white" stroke="#FB7D5B" stroke-width="8"/>
<path d="M0.753336 22.48V20.986H4.13734V34H2.48134V22.48H0.753336ZM6.95096 27.358C6.95096 25.294 7.28696 23.686 7.95896 22.534C8.63096 21.37 9.80696 20.788 11.487 20.788C13.155 20.788 14.325 21.37 14.997 22.534C15.669 23.686 16.005 25.294 16.005 27.358C16.005 29.458 15.669 31.09 14.997 32.254C14.325 33.418 13.155 34 11.487 34C9.80696 34 8.63096 33.418 7.95896 32.254C7.28696 31.09 6.95096 29.458 6.95096 27.358ZM14.385 27.358C14.385 26.314 14.313 25.432 14.169 24.712C14.037 23.98 13.755 23.392 13.323 22.948C12.903 22.504 12.291 22.282 11.487 22.282C10.671 22.282 10.047 22.504 9.61496 22.948C9.19496 23.392 8.91296 23.98 8.76896 24.712C8.63696 25.432 8.57096 26.314 8.57096 27.358C8.57096 28.438 8.63696 29.344 8.76896 30.076C8.91296 30.808 9.19496 31.396 9.61496 31.84C10.047 32.284 10.671 32.506 11.487 32.506C12.291 32.506 12.903 32.284 13.323 31.84C13.755 31.396 14.037 30.808 14.169 30.076C14.313 29.344 14.385 28.438 14.385 27.358ZM18.2537 27.358C18.2537 25.294 18.5897 23.686 19.2617 22.534C19.9337 21.37 21.1097 20.788 22.7897 20.788C24.4577 20.788 25.6277 21.37 26.2997 22.534C26.9717 23.686 27.3077 25.294 27.3077 27.358C27.3077 29.458 26.9717 31.09 26.2997 32.254C25.6277 33.418 24.4577 34 22.7897 34C21.1097 34 19.9337 33.418 19.2617 32.254C18.5897 31.09 18.2537 29.458 18.2537 27.358ZM25.6877 27.358C25.6877 26.314 25.6157 25.432 25.4717 24.712C25.3397 23.98 25.0577 23.392 24.6257 22.948C24.2057 22.504 23.5937 22.282 22.7897 22.282C21.9737 22.282 21.3497 22.504 20.9177 22.948C20.4977 23.392 20.2157 23.98 20.0717 24.712C19.9397 25.432 19.8737 26.314 19.8737 27.358C19.8737 28.438 19.9397 29.344 20.0717 30.076C20.2157 30.808 20.4977 31.396 20.9177 31.84C21.3497 32.284 21.9737 32.506 22.7897 32.506C23.5937 32.506 24.2057 32.284 24.6257 31.84C25.0577 31.396 25.3397 30.808 25.4717 30.076C25.6157 29.344 25.6877 28.438 25.6877 27.358Z" fill="#A098AE"/>
<path d="M9.19534 81.264L4.19134 93H2.53534L7.61134 81.426H0.663336V80.022H9.19534V81.264ZM19.3095 81.408H12.9915V85.512C13.2675 85.128 13.6755 84.816 14.2155 84.576C14.7555 84.324 15.3375 84.198 15.9615 84.198C16.9575 84.198 17.7675 84.408 18.3915 84.828C19.0155 85.236 19.4595 85.77 19.7235 86.43C19.9995 87.078 20.1375 87.768 20.1375 88.5C20.1375 89.364 19.9755 90.138 19.6515 90.822C19.3275 91.506 18.8295 92.046 18.1575 92.442C17.4975 92.838 16.6755 93.036 15.6915 93.036C14.4315 93.036 13.4115 92.712 12.6315 92.064C11.8515 91.416 11.3775 90.552 11.2095 89.472H12.8115C12.9675 90.156 13.2975 90.69 13.8015 91.074C14.3055 91.458 14.9415 91.65 15.7095 91.65C16.6575 91.65 17.3715 91.368 17.8515 90.804C18.3315 90.228 18.5715 89.472 18.5715 88.536C18.5715 87.6 18.3315 86.88 17.8515 86.376C17.3715 85.86 16.6635 85.602 15.7275 85.602C15.0915 85.602 14.5335 85.758 14.0535 86.07C13.5855 86.37 13.2435 86.784 13.0275 87.312H11.4795V79.968H19.3095V81.408Z" fill="#A098AE"/>
<path d="M9.48334 140.408H3.16534V144.512C3.44134 144.128 3.84934 143.816 4.38934 143.576C4.92934 143.324 5.51134 143.198 6.13534 143.198C7.13134 143.198 7.94134 143.408 8.56534 143.828C9.18934 144.236 9.63334 144.77 9.89734 145.43C10.1733 146.078 10.3113 146.768 10.3113 147.5C10.3113 148.364 10.1493 149.138 9.82534 149.822C9.50134 150.506 9.00334 151.046 8.33134 151.442C7.67134 151.838 6.84934 152.036 5.86534 152.036C4.60534 152.036 3.58534 151.712 2.80534 151.064C2.02534 150.416 1.55134 149.552 1.38334 148.472H2.98534C3.14134 149.156 3.47134 149.69 3.97534 150.074C4.47934 150.458 5.11534 150.65 5.88334 150.65C6.83134 150.65 7.54534 150.368 8.02534 149.804C8.50534 149.228 8.74534 148.472 8.74534 147.536C8.74534 146.6 8.50534 145.88 8.02534 145.376C7.54534 144.86 6.83734 144.602 5.90134 144.602C5.26534 144.602 4.70734 144.758 4.22734 145.07C3.75934 145.37 3.41734 145.784 3.20134 146.312H1.65334V138.968H9.48334V140.408ZM12.4881 145.358C12.4881 143.294 12.8241 141.686 13.4961 140.534C14.1681 139.37 15.3441 138.788 17.0241 138.788C18.6921 138.788 19.8621 139.37 20.5341 140.534C21.2061 141.686 21.5421 143.294 21.5421 145.358C21.5421 147.458 21.2061 149.09 20.5341 150.254C19.8621 151.418 18.6921 152 17.0241 152C15.3441 152 14.1681 151.418 13.4961 150.254C12.8241 149.09 12.4881 147.458 12.4881 145.358ZM19.9221 145.358C19.9221 144.314 19.8501 143.432 19.7061 142.712C19.5741 141.98 19.2921 141.392 18.8601 140.948C18.4401 140.504 17.8281 140.282 17.0241 140.282C16.2081 140.282 15.5841 140.504 15.1521 140.948C14.7321 141.392 14.4501 141.98 14.3061 142.712C14.1741 143.432 14.1081 144.314 14.1081 145.358C14.1081 146.438 14.1741 147.344 14.3061 148.076C14.4501 148.808 14.7321 149.396 15.1521 149.84C15.5841 150.284 16.2081 150.506 17.0241 150.506C17.8281 150.506 18.4401 150.284 18.8601 149.84C19.2921 149.396 19.5741 148.808 19.7061 148.076C19.8501 147.344 19.9221 146.438 19.9221 145.358Z" fill="#A098AE"/>
<path d="M0.987336 209.686C2.51134 208.462 3.70534 207.46 4.56934 206.68C5.43334 205.888 6.15934 205.066 6.74734 204.214C7.34734 203.35 7.64734 202.504 7.64734 201.676C7.64734 200.896 7.45534 200.284 7.07134 199.84C6.69934 199.384 6.09334 199.156 5.25334 199.156C4.43734 199.156 3.80134 199.414 3.34534 199.93C2.90134 200.434 2.66134 201.112 2.62534 201.964H1.04134C1.08934 200.62 1.49734 199.582 2.26534 198.85C3.03334 198.118 4.02334 197.752 5.23534 197.752C6.47134 197.752 7.44934 198.094 8.16934 198.778C8.90134 199.462 9.26734 200.404 9.26734 201.604C9.26734 202.6 8.96734 203.572 8.36734 204.52C7.77934 205.456 7.10734 206.284 6.35134 207.004C5.59534 207.712 4.62934 208.54 3.45334 209.488H9.64534V210.856H0.987336V209.686ZM19.8369 199.408H13.5189V203.512C13.7949 203.128 14.2029 202.816 14.7429 202.576C15.2829 202.324 15.8649 202.198 16.4889 202.198C17.4849 202.198 18.2949 202.408 18.9189 202.828C19.5429 203.236 19.9869 203.77 20.2509 204.43C20.5269 205.078 20.6649 205.768 20.6649 206.5C20.6649 207.364 20.5029 208.138 20.1789 208.822C19.8549 209.506 19.3569 210.046 18.6849 210.442C18.0249 210.838 17.2029 211.036 16.2189 211.036C14.9589 211.036 13.9389 210.712 13.1589 210.064C12.3789 209.416 11.9049 208.552 11.7369 207.472H13.3389C13.4949 208.156 13.8249 208.69 14.3289 209.074C14.8329 209.458 15.4689 209.65 16.2369 209.65C17.1849 209.65 17.8989 209.368 18.3789 208.804C18.8589 208.228 19.0989 207.472 19.0989 206.536C19.0989 205.6 18.8589 204.88 18.3789 204.376C17.8989 203.86 17.1909 203.602 16.2549 203.602C15.6189 203.602 15.0609 203.758 14.5809 204.07C14.1129 204.37 13.7709 204.784 13.5549 205.312H12.0069V197.968H19.8369V199.408Z" fill="#A098AE"/>
<path d="M1.18534 263.358C1.18534 261.294 1.52134 259.686 2.19334 258.534C2.86534 257.37 4.04134 256.788 5.72134 256.788C7.38934 256.788 8.55934 257.37 9.23134 258.534C9.90334 259.686 10.2393 261.294 10.2393 263.358C10.2393 265.458 9.90334 267.09 9.23134 268.254C8.55934 269.418 7.38934 270 5.72134 270C4.04134 270 2.86534 269.418 2.19334 268.254C1.52134 267.09 1.18534 265.458 1.18534 263.358ZM8.61934 263.358C8.61934 262.314 8.54734 261.432 8.40334 260.712C8.27134 259.98 7.98934 259.392 7.55734 258.948C7.13734 258.504 6.52534 258.282 5.72134 258.282C4.90534 258.282 4.28134 258.504 3.84934 258.948C3.42934 259.392 3.14734 259.98 3.00334 260.712C2.87134 261.432 2.80534 262.314 2.80534 263.358C2.80534 264.438 2.87134 265.344 3.00334 266.076C3.14734 266.808 3.42934 267.396 3.84934 267.84C4.28134 268.284 4.90534 268.506 5.72134 268.506C6.52534 268.506 7.13734 268.284 7.55734 267.84C7.98934 267.396 8.27134 266.808 8.40334 266.076C8.54734 265.344 8.61934 264.438 8.61934 263.358Z" fill="#A098AE"/>
<rect x="727" y="1" width="105" height="74" rx="10" fill="#4D44B5"/>
<path d="M780 84L785.196 75H774.804L780 84Z" fill="#4D44B5"/>
<path d="M761.889 28.328C761.889 28.988 761.715 29.6 761.367 30.164C761.031 30.716 760.527 31.172 759.855 31.532C759.195 31.88 758.409 32.072 757.497 32.108V33.566H756.345V32.09C755.073 31.982 754.047 31.604 753.267 30.956C752.487 30.296 752.073 29.402 752.025 28.274H755.301C755.373 28.994 755.721 29.456 756.345 29.66V26.816C755.409 26.576 754.659 26.342 754.095 26.114C753.543 25.886 753.057 25.52 752.637 25.016C752.217 24.512 752.007 23.822 752.007 22.946C752.007 21.854 752.409 20.978 753.213 20.318C754.029 19.658 755.073 19.286 756.345 19.202V17.744H757.497V19.202C758.757 19.298 759.753 19.664 760.485 20.3C761.217 20.936 761.625 21.818 761.709 22.946H758.415C758.343 22.298 758.037 21.878 757.497 21.686V24.476C758.493 24.752 759.261 24.998 759.801 25.214C760.341 25.43 760.821 25.79 761.241 26.294C761.673 26.786 761.889 27.464 761.889 28.328ZM755.265 22.802C755.265 23.102 755.355 23.354 755.535 23.558C755.727 23.762 755.997 23.942 756.345 24.098V21.596C756.009 21.656 755.745 21.788 755.553 21.992C755.361 22.184 755.265 22.454 755.265 22.802ZM757.497 29.714C757.857 29.654 758.139 29.51 758.343 29.282C758.559 29.054 758.667 28.772 758.667 28.436C758.667 28.124 758.565 27.872 758.361 27.68C758.169 27.476 757.881 27.302 757.497 27.158V29.714ZM763.549 21.722V18.86H768.535V32H765.331V21.722H763.549ZM774.258 29.156L772.26 34.322H770.298L771.342 29.156H774.258ZM775.916 22.568C775.964 21.284 776.384 20.294 777.176 19.598C777.968 18.902 779.042 18.554 780.398 18.554C781.298 18.554 782.066 18.71 782.702 19.022C783.35 19.334 783.836 19.76 784.16 20.3C784.496 20.84 784.664 21.446 784.664 22.118C784.664 22.91 784.466 23.558 784.07 24.062C783.674 24.554 783.212 24.89 782.684 25.07V25.142C783.368 25.37 783.908 25.748 784.304 26.276C784.7 26.804 784.898 27.482 784.898 28.31C784.898 29.054 784.724 29.714 784.376 30.29C784.04 30.854 783.542 31.298 782.882 31.622C782.234 31.946 781.46 32.108 780.56 32.108C779.12 32.108 777.968 31.754 777.104 31.046C776.252 30.338 775.802 29.27 775.754 27.842H778.742C778.754 28.37 778.904 28.79 779.192 29.102C779.48 29.402 779.9 29.552 780.452 29.552C780.92 29.552 781.28 29.42 781.532 29.156C781.796 28.88 781.928 28.52 781.928 28.076C781.928 27.5 781.742 27.086 781.37 26.834C781.01 26.57 780.428 26.438 779.624 26.438H779.048V23.936H779.624C780.236 23.936 780.728 23.834 781.1 23.63C781.484 23.414 781.676 23.036 781.676 22.496C781.676 22.064 781.556 21.728 781.316 21.488C781.076 21.248 780.746 21.128 780.326 21.128C779.87 21.128 779.528 21.266 779.3 21.542C779.084 21.818 778.958 22.16 778.922 22.568H775.916ZM786.778 29.66V27.176L792.466 19.04H795.904V26.996H797.38V29.66H795.904V32H792.826V29.66H786.778ZM793.042 22.424L790.018 26.996H793.042V22.424ZM808.14 21.542H802.524V24.026C802.764 23.762 803.1 23.546 803.532 23.378C803.964 23.21 804.432 23.126 804.936 23.126C805.836 23.126 806.58 23.33 807.168 23.738C807.768 24.146 808.206 24.674 808.482 25.322C808.758 25.97 808.896 26.672 808.896 27.428C808.896 28.832 808.5 29.948 807.708 30.776C806.916 31.592 805.8 32 804.36 32C803.4 32 802.566 31.838 801.858 31.514C801.15 31.178 800.604 30.716 800.22 30.128C799.836 29.54 799.626 28.862 799.59 28.094H802.596C802.668 28.466 802.842 28.778 803.118 29.03C803.394 29.27 803.772 29.39 804.252 29.39C804.816 29.39 805.236 29.21 805.512 28.85C805.788 28.49 805.926 28.01 805.926 27.41C805.926 26.822 805.782 26.372 805.494 26.06C805.206 25.748 804.786 25.592 804.234 25.592C803.826 25.592 803.49 25.694 803.226 25.898C802.962 26.09 802.788 26.348 802.704 26.672H799.734V18.842H808.14V21.542Z" fill="white"/>
<g filter="url(#filter0_d_1_110)">
<path d="M753.426 48.242V55.452C753.426 56.2547 753.178 56.8987 752.684 57.384C752.189 57.86 751.536 58.098 750.724 58.098C749.902 58.098 749.244 57.8553 748.75 57.37C748.255 56.8753 748.008 56.2033 748.008 55.354H749.282C749.291 55.83 749.412 56.2173 749.646 56.516C749.888 56.8147 750.248 56.964 750.724 56.964C751.2 56.964 751.554 56.824 751.788 56.544C752.021 56.2547 752.138 55.8907 752.138 55.452V48.242H753.426ZM762.739 50.328V58H761.465V56.866C761.223 57.258 760.882 57.566 760.443 57.79C760.014 58.0047 759.538 58.112 759.015 58.112C758.418 58.112 757.881 57.9907 757.405 57.748C756.929 57.496 756.551 57.1227 756.271 56.628C756.001 56.1333 755.865 55.5313 755.865 54.822V50.328H757.125V54.654C757.125 55.41 757.317 55.9933 757.699 56.404C758.082 56.8053 758.605 57.006 759.267 57.006C759.949 57.006 760.485 56.796 760.877 56.376C761.269 55.956 761.465 55.3447 761.465 54.542V50.328H762.739ZM766.165 47.64V58H764.891V47.64H766.165ZM774.944 50.328L770.324 61.612H769.008L770.52 57.916L767.426 50.328H768.84L771.248 56.544L773.628 50.328H774.944ZM779.593 56.978C780.778 56.026 781.707 55.2467 782.379 54.64C783.051 54.024 783.616 53.3847 784.073 52.722C784.54 52.05 784.773 51.392 784.773 50.748C784.773 50.1413 784.624 49.6653 784.325 49.32C784.036 48.9653 783.564 48.788 782.911 48.788C782.276 48.788 781.782 48.9887 781.427 49.39C781.082 49.782 780.895 50.3093 780.867 50.972H779.635C779.672 49.9267 779.99 49.1193 780.587 48.55C781.184 47.9807 781.954 47.696 782.897 47.696C783.858 47.696 784.619 47.962 785.179 48.494C785.748 49.026 786.033 49.7587 786.033 50.692C786.033 51.4667 785.8 52.2227 785.333 52.96C784.876 53.688 784.353 54.332 783.765 54.892C783.177 55.4427 782.426 56.0867 781.511 56.824H786.327V57.888H779.593V56.978ZM787.8 52.834C787.8 51.2287 788.061 49.978 788.584 49.082C789.106 48.1767 790.021 47.724 791.328 47.724C792.625 47.724 793.535 48.1767 794.058 49.082C794.58 49.978 794.842 51.2287 794.842 52.834C794.842 54.4673 794.58 55.7367 794.058 56.642C793.535 57.5473 792.625 58 791.328 58C790.021 58 789.106 57.5473 788.584 56.642C788.061 55.7367 787.8 54.4673 787.8 52.834ZM793.582 52.834C793.582 52.022 793.526 51.336 793.414 50.776C793.311 50.2067 793.092 49.7493 792.756 49.404C792.429 49.0587 791.953 48.886 791.328 48.886C790.693 48.886 790.208 49.0587 789.872 49.404C789.545 49.7493 789.326 50.2067 789.214 50.776C789.111 51.336 789.06 52.022 789.06 52.834C789.06 53.674 789.111 54.3787 789.214 54.948C789.326 55.5173 789.545 55.9747 789.872 56.32C790.208 56.6653 790.693 56.838 791.328 56.838C791.953 56.838 792.429 56.6653 792.756 56.32C793.092 55.9747 793.311 55.5173 793.414 54.948C793.526 54.3787 793.582 53.674 793.582 52.834ZM796.437 56.978C797.622 56.026 798.551 55.2467 799.223 54.64C799.895 54.024 800.459 53.3847 800.917 52.722C801.383 52.05 801.617 51.392 801.617 50.748C801.617 50.1413 801.467 49.6653 801.169 49.32C800.879 48.9653 800.408 48.788 799.755 48.788C799.12 48.788 798.625 48.9887 798.271 49.39C797.925 49.782 797.739 50.3093 797.711 50.972H796.479C796.516 49.9267 796.833 49.1193 797.431 48.55C798.028 47.9807 798.798 47.696 799.741 47.696C800.702 47.696 801.463 47.962 802.023 48.494C802.592 49.026 802.877 49.7587 802.877 50.692C802.877 51.4667 802.643 52.2227 802.177 52.96C801.719 53.688 801.197 54.332 800.609 54.892C800.021 55.4427 799.269 56.0867 798.355 56.824H803.171V57.888H796.437V56.978ZM804.643 52.834C804.643 51.2287 804.905 49.978 805.427 49.082C805.95 48.1767 806.865 47.724 808.171 47.724C809.469 47.724 810.379 48.1767 810.901 49.082C811.424 49.978 811.685 51.2287 811.685 52.834C811.685 54.4673 811.424 55.7367 810.901 56.642C810.379 57.5473 809.469 58 808.171 58C806.865 58 805.95 57.5473 805.427 56.642C804.905 55.7367 804.643 54.4673 804.643 52.834ZM810.425 52.834C810.425 52.022 810.369 51.336 810.257 50.776C810.155 50.2067 809.935 49.7493 809.599 49.404C809.273 49.0587 808.797 48.886 808.171 48.886C807.537 48.886 807.051 49.0587 806.715 49.404C806.389 49.7493 806.169 50.2067 806.057 50.776C805.955 51.336 805.903 52.022 805.903 52.834C805.903 53.674 805.955 54.3787 806.057 54.948C806.169 55.5173 806.389 55.9747 806.715 56.32C807.051 56.6653 807.537 56.838 808.171 56.838C808.797 56.838 809.273 56.6653 809.599 56.32C809.935 55.9747 810.155 55.5173 810.257 54.948C810.369 54.3787 810.425 53.674 810.425 52.834Z" fill="white"/>
</g>
<defs>
<filter id="filter0_d_1_110" x="744.008" y="47.64" width="71.6778" height="21.972" filterUnits="userSpaceOnUse" color-interpolation-filters="sRGB">
<feFlood flood-opacity="0" result="BackgroundImageFix"/>
<feColorMatrix in="SourceAlpha" type="matrix" values="0 0 0 0 0 0 0 0 0 0 0 0 0 0 0 0 0 0 127 0" result="hardAlpha"/>
<feOffset dy="4"/>
<feGaussianBlur stdDeviation="2"/>
<feColorMatrix type="matrix" values="0 0 0 0 0 0 0 0 0 0 0 0 0 0 0 0 0 0 0.25 0"/>
<feBlend mode="normal" in2="BackgroundImageFix" result="effect1_dropShadow_1_110"/>
<feBlend mode="normal" in="SourceGraphic" in2="effect1_dropShadow_1_110" result="shape"/>
</filter>
<linearGradient id="paint0_linear_1_110" x1="722.919" y1="-467.5" x2="722.919" y2="279.664" gradientUnits="userSpaceOnUse">
<stop stop-color="#FCC43E"/>
<stop offset="1" stop-color="#FCC43E" stop-opacity="0"/>
</linearGradient>
<linearGradient id="paint1_linear_1_110" x1="722.419" y1="-538" x2="722.419" y2="282" gradientUnits="userSpaceOnUse">
<stop stop-color="#FB7D5B"/>
<stop offset="1" stop-color="#FB7D5B" stop-opacity="0"/>
</linearGradient>
</defs>
</svg>
